<svg width="331" height="66" viewBox="0 0 331 66" fill="none" xmlns="http://www.w3.org/2000/svg">
<g filter="url(#filter0_d_345_2966)">
<path d="M3 30C3 13.9837 15.9837 1 32 1H299C315.016 1 328 13.9837 328 30C328 46.0163 315.016 59 299 59H32C15.9837 59 3 46.0163 3 30Z" fill="#4C5D4B" shape-rendering="crispEdges"/>
<path d="M299 0.5C315.292 0.5 328.5 13.7076 328.5 30C328.5 46.2924 315.292 59.5 299 59.5H32C15.7076 59.5 2.5 46.2924 2.5 30C2.5 13.7076 15.7076 0.5 32 0.5H299Z" stroke="url(#paint0_linear_345_2966)" shape-rendering="crispEdges"/>
<path d="M95.5078 24.7695H100.086C100.992 24.7695 101.667 24.8086 102.109 24.8867C102.557 24.9596 102.956 25.1159 103.305 25.3555C103.659 25.5951 103.953 25.9154 104.188 26.3164C104.422 26.7122 104.539 27.1576 104.539 27.6523C104.539 28.1888 104.393 28.681 104.102 29.1289C103.815 29.5768 103.424 29.9128 102.93 30.1367C103.628 30.3398 104.164 30.6862 104.539 31.1758C104.914 31.6654 105.102 32.2409 105.102 32.9023C105.102 33.4232 104.979 33.931 104.734 34.4258C104.495 34.9154 104.164 35.3086 103.742 35.6055C103.326 35.8971 102.81 36.0768 102.195 36.1445C101.81 36.1862 100.88 36.2122 99.4062 36.2227H95.5078V24.7695ZM97.8203 26.6758V29.3242H99.3359C100.237 29.3242 100.797 29.3112 101.016 29.2852C101.411 29.2383 101.721 29.1029 101.945 28.8789C102.174 28.6497 102.289 28.3503 102.289 27.9805C102.289 27.6263 102.19 27.3398 101.992 27.1211C101.799 26.8971 101.51 26.7617 101.125 26.7148C100.896 26.6888 100.237 26.6758 99.1484 26.6758H97.8203ZM97.8203 31.2305V34.293H99.9609C100.794 34.293 101.323 34.2695 101.547 34.2227C101.891 34.1602 102.169 34.0091 102.383 33.7695C102.602 33.5247 102.711 33.1992 102.711 32.793C102.711 32.4492 102.628 32.1576 102.461 31.918C102.294 31.6784 102.052 31.5039 101.734 31.3945C101.422 31.2852 100.74 31.2305 99.6875 31.2305H97.8203ZM106.539 31.957C106.539 31.2279 106.719 30.5221 107.078 29.8398C107.438 29.1576 107.945 28.6367 108.602 28.2773C109.263 27.918 110 27.7383 110.812 27.7383C112.068 27.7383 113.096 28.1471 113.898 28.9648C114.701 29.7773 115.102 30.806 115.102 32.0508C115.102 33.306 114.695 34.3477 113.883 35.1758C113.076 35.9987 112.057 36.4102 110.828 36.4102C110.068 36.4102 109.341 36.2383 108.648 35.8945C107.961 35.5508 107.438 35.0482 107.078 34.3867C106.719 33.7201 106.539 32.9102 106.539 31.957ZM108.789 32.0742C108.789 32.8971 108.984 33.5273 109.375 33.9648C109.766 34.4023 110.247 34.6211 110.82 34.6211C111.393 34.6211 111.872 34.4023 112.258 33.9648C112.648 33.5273 112.844 32.8919 112.844 32.0586C112.844 31.2461 112.648 30.6211 112.258 30.1836C111.872 29.7461 111.393 29.5273 110.82 29.5273C110.247 29.5273 109.766 29.7461 109.375 30.1836C108.984 30.6211 108.789 31.2513 108.789 32.0742ZM116.32 31.957C116.32 31.2279 116.5 30.5221 116.859 29.8398C117.219 29.1576 117.727 28.6367 118.383 28.2773C119.044 27.918 119.781 27.7383 120.594 27.7383C121.849 27.7383 122.878 28.1471 123.68 28.9648C124.482 29.7773 124.883 30.806 124.883 32.0508C124.883 33.306 124.477 34.3477 123.664 35.1758C122.857 35.9987 121.839 36.4102 120.609 36.4102C119.849 36.4102 119.122 36.2383 118.43 35.8945C117.742 35.5508 117.219 35.0482 116.859 34.3867C116.5 33.7201 116.32 32.9102 116.32 31.957ZM118.57 32.0742C118.57 32.8971 118.766 33.5273 119.156 33.9648C119.547 34.4023 120.029 34.6211 120.602 34.6211C121.174 34.6211 121.654 34.4023 122.039 33.9648C122.43 33.5273 122.625 32.8919 122.625 32.0586C122.625 31.2461 122.43 30.6211 122.039 30.1836C121.654 29.7461 121.174 29.5273 120.602 29.5273C120.029 29.5273 119.547 29.7461 119.156 30.1836C118.766 30.6211 118.57 31.2513 118.57 32.0742ZM126.531 36.2227V24.7695H128.727V30.8477L131.297 27.9258H134L131.164 30.957L134.203 36.2227H131.836L129.75 32.4961L128.727 33.5664V36.2227H126.531ZM147.312 32.0117L149.555 32.7227C149.211 33.9727 148.638 34.9023 147.836 35.5117C147.039 36.1159 146.026 36.418 144.797 36.418C143.276 36.418 142.026 35.8997 141.047 34.8633C140.068 33.8216 139.578 32.3997 139.578 30.5977C139.578 28.6914 140.07 27.2122 141.055 26.1602C142.039 25.1029 143.333 24.5742 144.938 24.5742C146.339 24.5742 147.477 24.9883 148.352 25.8164C148.872 26.306 149.263 27.0091 149.523 27.9258L147.234 28.4727C147.099 27.8789 146.815 27.4102 146.383 27.0664C145.956 26.7227 145.435 26.5508 144.82 26.5508C143.971 26.5508 143.281 26.8555 142.75 27.4648C142.224 28.0742 141.961 29.0612 141.961 30.4258C141.961 31.8737 142.221 32.9049 142.742 33.5195C143.263 34.1341 143.94 34.4414 144.773 34.4414C145.388 34.4414 145.917 34.2461 146.359 33.8555C146.802 33.4648 147.12 32.8503 147.312 32.0117ZM151.023 31.957C151.023 31.2279 151.203 30.5221 151.562 29.8398C151.922 29.1576 152.43 28.6367 153.086 28.2773C153.747 27.918 154.484 27.7383 155.297 27.7383C156.552 27.7383 157.581 28.1471 158.383 28.9648C159.185 29.7773 159.586 30.806 159.586 32.0508C159.586 33.306 159.18 34.3477 158.367 35.1758C157.56 35.9987 156.542 36.4102 155.312 36.4102C154.552 36.4102 153.826 36.2383 153.133 35.8945C152.445 35.5508 151.922 35.0482 151.562 34.3867C151.203 33.7201 151.023 32.9102 151.023 31.957ZM153.273 32.0742C153.273 32.8971 153.469 33.5273 153.859 33.9648C154.25 34.4023 154.732 34.6211 155.305 34.6211C155.878 34.6211 156.357 34.4023 156.742 33.9648C157.133 33.5273 157.328 32.8919 157.328 32.0586C157.328 31.2461 157.133 30.6211 156.742 30.1836C156.357 29.7461 155.878 29.5273 155.305 29.5273C154.732 29.5273 154.25 29.7461 153.859 30.1836C153.469 30.6211 153.273 31.2513 153.273 32.0742ZM168.859 36.2227H166.664V31.9883C166.664 31.0924 166.617 30.5143 166.523 30.2539C166.43 29.9883 166.276 29.7826 166.062 29.6367C165.854 29.4909 165.602 29.418 165.305 29.418C164.924 29.418 164.583 29.5221 164.281 29.7305C163.979 29.9388 163.771 30.2148 163.656 30.5586C163.547 30.9023 163.492 31.5378 163.492 32.4648V36.2227H161.297V27.9258H163.336V29.1445C164.06 28.207 164.971 27.7383 166.07 27.7383C166.555 27.7383 166.997 27.8268 167.398 28.0039C167.799 28.1758 168.102 28.3971 168.305 28.668C168.513 28.9388 168.656 29.2461 168.734 29.5898C168.818 29.9336 168.859 30.4258 168.859 31.0664V36.2227ZM170.32 33.8555L172.523 33.5195C172.617 33.9466 172.807 34.2721 173.094 34.4961C173.38 34.7148 173.781 34.8242 174.297 34.8242C174.865 34.8242 175.292 34.7201 175.578 34.5117C175.771 34.3659 175.867 34.1706 175.867 33.9258C175.867 33.7591 175.815 33.6211 175.711 33.5117C175.602 33.4076 175.357 33.3112 174.977 33.2227C173.206 32.832 172.083 32.4753 171.609 32.1523C170.953 31.7044 170.625 31.082 170.625 30.2852C170.625 29.5664 170.909 28.9622 171.477 28.4727C172.044 27.9831 172.924 27.7383 174.117 27.7383C175.253 27.7383 176.096 27.9232 176.648 28.293C177.201 28.6628 177.581 29.2096 177.789 29.9336L175.719 30.3164C175.63 29.9935 175.461 29.7461 175.211 29.5742C174.966 29.4023 174.615 29.3164 174.156 29.3164C173.578 29.3164 173.164 29.3971 172.914 29.5586C172.747 29.6732 172.664 29.8216 172.664 30.0039C172.664 30.1602 172.737 30.293 172.883 30.4023C173.081 30.5482 173.763 30.7539 174.93 31.0195C176.102 31.2852 176.919 31.6107 177.383 31.9961C177.841 32.3867 178.07 32.931 178.07 33.6289C178.07 34.3893 177.753 35.043 177.117 35.5898C176.482 36.1367 175.542 36.4102 174.297 36.4102C173.167 36.4102 172.271 36.181 171.609 35.7227C170.953 35.2643 170.523 34.6419 170.32 33.8555ZM185.461 36.2227V34.9805C185.159 35.4232 184.76 35.7721 184.266 36.0273C183.776 36.2826 183.258 36.4102 182.711 36.4102C182.154 36.4102 181.654 36.2878 181.211 36.043C180.768 35.7982 180.448 35.4544 180.25 35.0117C180.052 34.569 179.953 33.957 179.953 33.1758V27.9258H182.148V31.7383C182.148 32.9049 182.188 33.6211 182.266 33.8867C182.349 34.1471 182.497 34.3555 182.711 34.5117C182.924 34.6628 183.195 34.7383 183.523 34.7383C183.898 34.7383 184.234 34.6367 184.531 34.4336C184.828 34.2253 185.031 33.9701 185.141 33.668C185.25 33.3607 185.305 32.6133 185.305 31.4258V27.9258H187.5V36.2227H185.461ZM189.781 36.2227V24.7695H191.977V36.2227H189.781ZM198.039 27.9258V29.6758H196.539V33.0195C196.539 33.6966 196.552 34.0924 196.578 34.207C196.609 34.3164 196.674 34.4076 196.773 34.4805C196.878 34.5534 197.003 34.5898 197.148 34.5898C197.352 34.5898 197.646 34.5195 198.031 34.3789L198.219 36.082C197.708 36.3008 197.13 36.4102 196.484 36.4102C196.089 36.4102 195.732 36.3451 195.414 36.2148C195.096 36.0794 194.862 35.9076 194.711 35.6992C194.565 35.4857 194.464 35.1992 194.406 34.8398C194.359 34.5846 194.336 34.069 194.336 33.293V29.6758H193.328V27.9258H194.336V26.2773L196.539 24.9961V27.9258H198.039ZM201.203 30.457L199.211 30.0977C199.435 29.2956 199.82 28.7018 200.367 28.3164C200.914 27.931 201.727 27.7383 202.805 27.7383C203.784 27.7383 204.513 27.8555 204.992 28.0898C205.471 28.319 205.807 28.6133 206 28.9727C206.198 29.3268 206.297 29.9805 206.297 30.9336L206.273 33.4961C206.273 34.2253 206.307 34.7643 206.375 35.1133C206.448 35.457 206.581 35.8268 206.773 36.2227H204.602C204.544 36.0768 204.474 35.8607 204.391 35.5742C204.354 35.444 204.328 35.3581 204.312 35.3164C203.938 35.681 203.536 35.9544 203.109 36.1367C202.682 36.319 202.227 36.4102 201.742 36.4102C200.888 36.4102 200.214 36.1784 199.719 35.7148C199.229 35.2513 198.984 34.6654 198.984 33.957C198.984 33.4883 199.096 33.0716 199.32 32.707C199.544 32.3372 199.857 32.056 200.258 31.8633C200.664 31.6654 201.247 31.4935 202.008 31.3477C203.034 31.1549 203.745 30.9753 204.141 30.8086V30.5898C204.141 30.168 204.036 29.8685 203.828 29.6914C203.62 29.5091 203.227 29.418 202.648 29.418C202.258 29.418 201.953 29.4961 201.734 29.6523C201.516 29.8034 201.339 30.0716 201.203 30.457ZM204.141 32.2383C203.859 32.332 203.414 32.444 202.805 32.5742C202.195 32.7044 201.797 32.832 201.609 32.957C201.323 33.1602 201.18 33.418 201.18 33.7305C201.18 34.0378 201.294 34.3034 201.523 34.5273C201.753 34.7513 202.044 34.8633 202.398 34.8633C202.794 34.8633 203.172 34.7331 203.531 34.4727C203.797 34.2747 203.971 34.0326 204.055 33.7461C204.112 33.5586 204.141 33.2018 204.141 32.6758V32.2383ZM212.273 27.9258V29.6758H210.773V33.0195C210.773 33.6966 210.786 34.0924 210.812 34.207C210.844 34.3164 210.909 34.4076 211.008 34.4805C211.112 34.5534 211.237 34.5898 211.383 34.5898C211.586 34.5898 211.88 34.5195 212.266 34.3789L212.453 36.082C211.943 36.3008 211.365 36.4102 210.719 36.4102C210.323 36.4102 209.966 36.3451 209.648 36.2148C209.331 36.0794 209.096 35.9076 208.945 35.6992C208.799 35.4857 208.698 35.1992 208.641 34.8398C208.594 34.5846 208.57 34.069 208.57 33.293V29.6758H207.562V27.9258H208.57V26.2773L210.773 24.9961V27.9258H212.273ZM213.797 26.8008V24.7695H215.992V26.8008H213.797ZM213.797 36.2227V27.9258H215.992V36.2227H213.797ZM217.742 31.957C217.742 31.2279 217.922 30.5221 218.281 29.8398C218.641 29.1576 219.148 28.6367 219.805 28.2773C220.466 27.918 221.203 27.7383 222.016 27.7383C223.271 27.7383 224.299 28.1471 225.102 28.9648C225.904 29.7773 226.305 30.806 226.305 32.0508C226.305 33.306 225.898 34.3477 225.086 35.1758C224.279 35.9987 223.26 36.4102 222.031 36.4102C221.271 36.4102 220.544 36.2383 219.852 35.8945C219.164 35.5508 218.641 35.0482 218.281 34.3867C217.922 33.7201 217.742 32.9102 217.742 31.957ZM219.992 32.0742C219.992 32.8971 220.188 33.5273 220.578 33.9648C220.969 34.4023 221.451 34.6211 222.023 34.6211C222.596 34.6211 223.076 34.4023 223.461 33.9648C223.852 33.5273 224.047 32.8919 224.047 32.0586C224.047 31.2461 223.852 30.6211 223.461 30.1836C223.076 29.7461 222.596 29.5273 222.023 29.5273C221.451 29.5273 220.969 29.7461 220.578 30.1836C220.188 30.6211 219.992 31.2513 219.992 32.0742ZM235.578 36.2227H233.383V31.9883C233.383 31.0924 233.336 30.5143 233.242 30.2539C233.148 29.9883 232.995 29.7826 232.781 29.6367C232.573 29.4909 232.32 29.418 232.023 29.418C231.643 29.418 231.302 29.5221 231 29.7305C230.698 29.9388 230.49 30.2148 230.375 30.5586C230.266 30.9023 230.211 31.5378 230.211 32.4648V36.2227H228.016V27.9258H230.055V29.1445C230.779 28.207 231.69 27.7383 232.789 27.7383C233.273 27.7383 233.716 27.8268 234.117 28.0039C234.518 28.1758 234.82 28.3971 235.023 28.668C235.232 28.9388 235.375 29.2461 235.453 29.5898C235.536 29.9336 235.578 30.4258 235.578 31.0664V36.2227Z" fill="white"/>
</g>
<defs>
<filter id="filter0_d_345_2966" x="0" y="0" width="331" height="66" filterUnits="userSpaceOnUse" color-interpolation-filters="sRGB">
<feFlood flood-opacity="0" result="BackgroundImageFix"/>
<feColorMatrix in="SourceAlpha" type="matrix" values="0 0 0 0 0 0 0 0 0 0 0 0 0 0 0 0 0 0 127 0" result="hardAlpha"/>
<feMorphology radius="4" operator="erode" in="SourceAlpha" result="effect1_dropShadow_345_2966"/>
<feOffset dy="4"/>
<feGaussianBlur stdDeviation="3"/>
<feComposite in2="hardAlpha" operator="out"/>
<feColorMatrix type="matrix" values="0 0 0 0 0 0 0 0 0 0 0 0 0 0 0 0 0 0 0.1 0"/>
<feBlend mode="normal" in2="BackgroundImageFix" result="effect1_dropShadow_345_2966"/>
<feBlend mode="normal" in="SourceGraphic" in2="effect1_dropShadow_345_2966" result="shape"/>
</filter>
<linearGradient id="paint0_linear_345_2966" x1="12.5" y1="8.22266" x2="328" y2="48.2227" gradientUnits="userSpaceOnUse">
<stop stop-color="white"/>
<stop offset="1" stop-color="white" stop-opacity="0.14"/>
</linearGradient>
</defs>
</svg>
