<svg width="32" height="33" viewBox="0 0 32 33" fill="none" xmlns="http://www.w3.org/2000/svg">
<g clip-path="url(#clip0_345_2970)">
<path d="M0.682949 16.3024C0.682199 19.075 1.3902 21.7823 2.73645 24.1686L0.554199 32.3216L8.7082 30.1339C10.9635 31.3902 13.4904 32.0485 16.0582 32.0487H16.065C24.5418 32.0487 31.4422 24.9904 31.4458 16.3148C31.4475 12.1109 29.849 8.1578 26.9447 5.18371C24.041 2.20987 20.1791 0.571255 16.0643 0.569336C7.58645 0.569336 0.686574 7.62724 0.683074 16.3024" fill="url(#paint0_linear_345_2970)"/>
<path d="M0.13375 16.2974C0.132875 19.1698 0.86625 21.9739 2.2605 24.4456L0 32.8909L8.44637 30.6248C10.7736 31.9232 13.3939 32.6077 16.0601 32.6087H16.067C24.848 32.6087 31.9963 25.2965 32 16.3104C32.0015 11.9555 30.3455 7.86027 27.3375 4.77963C24.3291 1.69937 20.3291 0.0017907 16.067 0C7.2845 0 0.13725 7.31116 0.13375 16.2974ZM5.16388 24.0199L4.8485 23.5076C3.52275 21.3506 2.823 18.858 2.824 16.2984C2.82675 8.82929 8.76725 2.75256 16.072 2.75256C19.6095 2.75409 22.934 4.16516 25.4345 6.72535C27.9349 9.28579 29.3108 12.6894 29.3099 16.3094C29.3066 23.7785 23.366 29.856 16.067 29.856H16.0618C13.6851 29.8548 11.3542 29.2017 9.3215 27.9675L8.83775 27.674L3.8255 29.0186L5.16388 24.0199Z" fill="url(#paint1_linear_345_2970)"/>
<path d="M12.0847 9.48386C11.7864 8.80557 11.4726 8.79188 11.1889 8.77999C10.9567 8.76975 10.6912 8.77052 10.4259 8.77052C10.1604 8.77052 9.72907 8.87272 9.36445 9.2801C8.99945 9.68787 7.97095 10.6733 7.97095 12.6774C7.97095 14.6816 9.39757 16.6186 9.59645 16.8907C9.79557 17.1622 12.3506 21.4067 16.3971 23.0396C19.7601 24.3965 20.4444 24.1266 21.1743 24.0586C21.9043 23.9908 23.5298 23.0735 23.8614 22.1222C24.1933 21.1711 24.1933 20.3558 24.0938 20.1855C23.9943 20.0157 23.7288 19.9138 23.3307 19.7101C22.9326 19.5065 20.9752 18.5209 20.6103 18.3849C20.2453 18.2491 19.9799 18.1813 19.7144 18.5892C19.4489 18.9964 18.6866 19.9138 18.4542 20.1855C18.2221 20.4578 17.9897 20.4917 17.5917 20.2879C17.1933 20.0835 15.9112 19.6539 14.3901 18.2662C13.2066 17.1864 12.4076 15.853 12.1753 15.4451C11.9431 15.0378 12.1504 14.8171 12.3501 14.6141C12.5289 14.4316 12.7483 14.1384 12.9476 13.9006C13.1461 13.6627 13.2123 13.493 13.3451 13.2213C13.4779 12.9494 13.4114 12.7115 13.3121 12.5077C13.2123 12.304 12.4387 10.2893 12.0847 9.48386Z" fill="white"/>
</g>
<defs>
<linearGradient id="paint0_linear_345_2970" x1="1545.14" y1="3175.8" x2="1545.14" y2="0.569336" gradientUnits="userSpaceOnUse">
<stop stop-color="#1FAF38"/>
<stop offset="1" stop-color="#60D669"/>
</linearGradient>
<linearGradient id="paint1_linear_345_2970" x1="1600" y1="3289.09" x2="1600" y2="0" gradientUnits="userSpaceOnUse">
<stop stop-color="#F9F9F9"/>
<stop offset="1" stop-color="white"/>
</linearGradient>
<clipPath id="clip0_345_2970">
<rect width="32" height="33" fill="white"/>
</clipPath>
</defs>
</svg>
